<mxfile host="app.diagrams.net" agent="Mozilla/5.0 (Windows NT 10.0; Win64; x64) AppleWebKit/537.36 (KHTML, like Gecko) Chrome/127.0.0.0 Safari/537.36" version="24.7.6">
  <diagram name="Page-1" id="wV2BvS7OhhC0VBMey-Kq">
    <mxGraphModel dx="1050" dy="565" grid="1" gridSize="10" guides="1" tooltips="1" connect="1" arrows="1" fold="1" page="1" pageScale="1" pageWidth="827" pageHeight="1169" math="0" shadow="0">
      <root>
        <mxCell id="0" />
        <mxCell id="1" parent="0" />
        <mxCell id="XYIROijQEHBWQ6BO1VVw-1" value="" style="html=1;fillColor=#f5f5f5;fontColor=#333333;strokeColor=#666666;" vertex="1" parent="1">
          <mxGeometry x="40" y="40" width="1100" height="1020" as="geometry" />
        </mxCell>
        <mxCell id="XYIROijQEHBWQ6BO1VVw-3" value="driver_cam" style="html=1;fillColor=#dae8fc;strokeColor=#6c8ebf;fontStyle=1;horizontal=1;verticalAlign=top;fontSize=16;" vertex="1" parent="1">
          <mxGeometry x="280" y="240" width="640" height="460" as="geometry" />
        </mxCell>
        <mxCell id="XYIROijQEHBWQ6BO1VVw-4" value="&lt;span style=&quot;font-size: 16px; text-wrap: nowrap;&quot;&gt;driver_cam&lt;/span&gt;&amp;nbsp;Process" style="ellipse;whiteSpace=wrap;html=1;fontSize=15;fillColor=#dae8fc;strokeColor=#6c8ebf;fontStyle=1" vertex="1" parent="1">
          <mxGeometry x="520" y="428" width="150" height="70" as="geometry" />
        </mxCell>
        <mxCell id="XYIROijQEHBWQ6BO1VVw-6" value="Get dds YUV Msg" style="ellipse;whiteSpace=wrap;html=1;fontSize=15;fillColor=#dae8fc;strokeColor=#6c8ebf;fontStyle=1" vertex="1" parent="1">
          <mxGeometry x="330" y="428" width="140" height="70" as="geometry" />
        </mxCell>
        <mxCell id="XYIROijQEHBWQ6BO1VVw-8" value="Send Fsm AP Msg" style="ellipse;whiteSpace=wrap;html=1;fontSize=15;fillColor=#dae8fc;strokeColor=#6c8ebf;fontStyle=1" vertex="1" parent="1">
          <mxGeometry x="720" y="271" width="140" height="70" as="geometry" />
        </mxCell>
        <mxCell id="XYIROijQEHBWQ6BO1VVw-9" value="dds YUV" style="shape=umlActor;verticalLabelPosition=bottom;verticalAlign=top;html=1;fillColor=#dae8fc;strokeColor=#6c8ebf;fontStyle=1;fontSize=15;" vertex="1" parent="1">
          <mxGeometry x="180" y="433" width="30" height="60" as="geometry" />
        </mxCell>
        <mxCell id="XYIROijQEHBWQ6BO1VVw-11" value="Fsm" style="shape=umlActor;verticalLabelPosition=bottom;verticalAlign=top;html=1;fillColor=#dae8fc;strokeColor=#6c8ebf;fontStyle=1;fontSize=15;" vertex="1" parent="1">
          <mxGeometry x="1010" y="276" width="30" height="60" as="geometry" />
        </mxCell>
        <mxCell id="XYIROijQEHBWQ6BO1VVw-13" value="Send Camera AP Msg" style="ellipse;whiteSpace=wrap;html=1;fontSize=15;fillColor=#dae8fc;strokeColor=#6c8ebf;fontStyle=1" vertex="1" parent="1">
          <mxGeometry x="720" y="380" width="140" height="70" as="geometry" />
        </mxCell>
        <mxCell id="XYIROijQEHBWQ6BO1VVw-15" value="record log" style="ellipse;whiteSpace=wrap;html=1;fontSize=15;fillColor=#dae8fc;strokeColor=#6c8ebf;fontStyle=1" vertex="1" parent="1">
          <mxGeometry x="720" y="504" width="140" height="70" as="geometry" />
        </mxCell>
        <mxCell id="XYIROijQEHBWQ6BO1VVw-16" value="camera_det" style="shape=umlActor;verticalLabelPosition=bottom;verticalAlign=top;html=1;fillColor=#dae8fc;strokeColor=#6c8ebf;fontStyle=1;fontSize=15;" vertex="1" parent="1">
          <mxGeometry x="1020" y="395" width="30" height="60" as="geometry" />
        </mxCell>
        <mxCell id="XYIROijQEHBWQ6BO1VVw-17" value="ara::log" style="shape=umlActor;verticalLabelPosition=bottom;verticalAlign=top;html=1;fillColor=#dae8fc;strokeColor=#6c8ebf;fontStyle=1;fontSize=15;" vertex="1" parent="1">
          <mxGeometry x="1010" y="500" width="30" height="60" as="geometry" />
        </mxCell>
        <mxCell id="XYIROijQEHBWQ6BO1VVw-19" value="" style="html=1;verticalAlign=bottom;endArrow=open;dashed=1;endSize=8;rounded=0;fontSize=15;entryX=1;entryY=0.5;entryDx=0;entryDy=0;exitX=0;exitY=0.5;exitDx=0;exitDy=0;" edge="1" parent="1" source="XYIROijQEHBWQ6BO1VVw-4" target="XYIROijQEHBWQ6BO1VVw-6">
          <mxGeometry relative="1" as="geometry">
            <mxPoint x="490" y="248" as="sourcePoint" />
            <mxPoint x="600" y="433" as="targetPoint" />
          </mxGeometry>
        </mxCell>
        <mxCell id="XYIROijQEHBWQ6BO1VVw-22" value="" style="html=1;verticalAlign=bottom;endArrow=open;dashed=1;endSize=8;rounded=0;fontSize=15;entryX=0;entryY=0.5;entryDx=0;entryDy=0;exitX=0.5;exitY=0;exitDx=0;exitDy=0;" edge="1" parent="1" source="XYIROijQEHBWQ6BO1VVw-4" target="XYIROijQEHBWQ6BO1VVw-8">
          <mxGeometry relative="1" as="geometry">
            <mxPoint x="610" y="438" as="sourcePoint" />
            <mxPoint x="490" y="248" as="targetPoint" />
          </mxGeometry>
        </mxCell>
        <mxCell id="XYIROijQEHBWQ6BO1VVw-23" value="" style="html=1;verticalAlign=bottom;endArrow=open;dashed=1;endSize=8;rounded=0;fontSize=15;entryX=0;entryY=0.5;entryDx=0;entryDy=0;exitX=1;exitY=0;exitDx=0;exitDy=0;" edge="1" parent="1" source="XYIROijQEHBWQ6BO1VVw-4" target="XYIROijQEHBWQ6BO1VVw-13">
          <mxGeometry relative="1" as="geometry">
            <mxPoint x="610" y="438" as="sourcePoint" />
            <mxPoint x="730" y="253" as="targetPoint" />
          </mxGeometry>
        </mxCell>
        <mxCell id="XYIROijQEHBWQ6BO1VVw-25" value="" style="html=1;verticalAlign=bottom;endArrow=open;dashed=1;endSize=8;rounded=0;fontSize=15;entryX=0;entryY=0.5;entryDx=0;entryDy=0;exitX=1;exitY=1;exitDx=0;exitDy=0;" edge="1" parent="1" source="XYIROijQEHBWQ6BO1VVw-4" target="XYIROijQEHBWQ6BO1VVw-15">
          <mxGeometry relative="1" as="geometry">
            <mxPoint x="600" y="497" as="sourcePoint" />
            <mxPoint x="730" y="562" as="targetPoint" />
          </mxGeometry>
        </mxCell>
        <mxCell id="XYIROijQEHBWQ6BO1VVw-27" value="" style="line;strokeWidth=1;fillColor=none;align=left;verticalAlign=middle;spacingTop=-1;spacingLeft=3;spacingRight=3;rotatable=0;labelPosition=right;points=[];portConstraint=eastwest;fontSize=15;" vertex="1" parent="1">
          <mxGeometry x="210" y="459" width="120" height="8" as="geometry" />
        </mxCell>
        <mxCell id="XYIROijQEHBWQ6BO1VVw-30" value="" style="line;strokeWidth=1;fillColor=none;align=left;verticalAlign=middle;spacingTop=-1;spacingLeft=3;spacingRight=3;rotatable=0;labelPosition=right;points=[];portConstraint=eastwest;fontSize=15;" vertex="1" parent="1">
          <mxGeometry x="860" y="302" width="146" height="8" as="geometry" />
        </mxCell>
        <mxCell id="XYIROijQEHBWQ6BO1VVw-32" value="" style="line;strokeWidth=1;fillColor=none;align=left;verticalAlign=middle;spacingTop=-1;spacingLeft=3;spacingRight=3;rotatable=0;labelPosition=right;points=[];portConstraint=eastwest;fontSize=15;" vertex="1" parent="1">
          <mxGeometry x="860" y="534" width="150" height="8" as="geometry" />
        </mxCell>
        <mxCell id="XYIROijQEHBWQ6BO1VVw-34" value="Send mviz Msg" style="ellipse;whiteSpace=wrap;html=1;fontSize=15;fillColor=#dae8fc;strokeColor=#6c8ebf;fontStyle=1" vertex="1" parent="1">
          <mxGeometry x="720" y="594" width="140" height="70" as="geometry" />
        </mxCell>
        <mxCell id="XYIROijQEHBWQ6BO1VVw-37" value="&lt;span style=&quot;&quot;&gt;mviz&lt;/span&gt;" style="shape=umlActor;verticalLabelPosition=bottom;verticalAlign=top;html=1;fillColor=#dae8fc;strokeColor=#6c8ebf;fontStyle=1;fontSize=15;" vertex="1" parent="1">
          <mxGeometry x="1010" y="595" width="30" height="60" as="geometry" />
        </mxCell>
        <mxCell id="XYIROijQEHBWQ6BO1VVw-38" value="" style="line;strokeWidth=1;fillColor=none;align=left;verticalAlign=middle;spacingTop=-1;spacingLeft=3;spacingRight=3;rotatable=0;labelPosition=right;points=[];portConstraint=eastwest;fontSize=15;" vertex="1" parent="1">
          <mxGeometry x="860" y="624" width="150" height="8" as="geometry" />
        </mxCell>
        <mxCell id="XYIROijQEHBWQ6BO1VVw-40" value="" style="html=1;verticalAlign=bottom;endArrow=open;dashed=1;endSize=8;rounded=0;fontSize=15;entryX=0;entryY=0.5;entryDx=0;entryDy=0;" edge="1" parent="1" target="XYIROijQEHBWQ6BO1VVw-34">
          <mxGeometry relative="1" as="geometry">
            <mxPoint x="600" y="500" as="sourcePoint" />
            <mxPoint x="490" y="765" as="targetPoint" />
          </mxGeometry>
        </mxCell>
        <mxCell id="XYIROijQEHBWQ6BO1VVw-57" value="" style="endArrow=none;html=1;rounded=0;exitX=1;exitY=0.5;exitDx=0;exitDy=0;entryX=0;entryY=0.3333333333333333;entryDx=0;entryDy=0;entryPerimeter=0;" edge="1" parent="1" source="XYIROijQEHBWQ6BO1VVw-13" target="XYIROijQEHBWQ6BO1VVw-16">
          <mxGeometry width="50" height="50" relative="1" as="geometry">
            <mxPoint x="870" y="473" as="sourcePoint" />
            <mxPoint x="1030" y="480" as="targetPoint" />
          </mxGeometry>
        </mxCell>
      </root>
    </mxGraphModel>
  </diagram>
</mxfile>
